<?xml version="1.0" encoding="UTF-8" standalone="no"?>
<!DOCTYPE svg PUBLIC "-//W3C//DTD SVG 1.1//EN"
 "http://www.w3.org/Graphics/SVG/1.1/DTD/svg11.dtd">
<!-- Generated by graphviz version 2.43.20200408.0903 (20200408.0903)
 -->
<!-- Title: pprof_1.exe Pages: 1 -->
<svg width="100%" height="100%" xmlns="http://www.w3.org/2000/svg" xmlns:xlink="http://www.w3.org/1999/xlink">
<script type="text/ecmascript"><![CDATA[
/**
 *  SVGPan library 1.2.2
 * ======================
 *
 * Given an unique existing element with id "viewport" (or when missing, the
 * first g-element), including the library into any SVG adds the following
 * capabilities:
 *
 *  - Mouse panning
 *  - Mouse zooming (using the wheel)
 *  - Object dragging
 *
 * You can configure the behaviour of the pan/zoom/drag with the variables
 * listed in the CONFIGURATION section of this file.
 *
 * Known issues:
 *
 *  - Zooming (while panning) on Safari has still some issues
 *
 * Releases:
 *
 * 1.2.2, Tue Aug 30 17:21:56 CEST 2011, Andrea Leofreddi
 *	- Fixed viewBox on root tag (#7)
 *	- Improved zoom speed (#2)
 *
 * 1.2.1, Mon Jul  4 00:33:18 CEST 2011, Andrea Leofreddi
 *	- Fixed a regression with mouse wheel (now working on Firefox 5)
 *	- Working with viewBox attribute (#4)
 *	- Added "use strict;" and fixed resulting warnings (#5)
 *	- Added configuration variables, dragging is disabled by default (#3)
 *
 * 1.2, Sat Mar 20 08:42:50 GMT 2010, Zeng Xiaohui
 *	Fixed a bug with browser mouse handler interaction
 *
 * 1.1, Wed Feb  3 17:39:33 GMT 2010, Zeng Xiaohui
 *	Updated the zoom code to support the mouse wheel on Safari/Chrome
 *
 * 1.0, Andrea Leofreddi
 *	First release
 *
 * This code is licensed under the following BSD license:
 *
 * Copyright 2009-2017 Andrea Leofreddi <a.leofreddi@vleo.net>. All rights reserved.
 *
 * Redistribution and use in source and binary forms, with or without modification, are
 * permitted provided that the following conditions are met:
 *
 *    1. Redistributions of source code must retain the above copyright
 *       notice, this list of conditions and the following disclaimer.
 *    2. Redistributions in binary form must reproduce the above copyright
 *       notice, this list of conditions and the following disclaimer in the
 *       documentation and/or other materials provided with the distribution.
 *    3. Neither the name of the copyright holder nor the names of its
 *       contributors may be used to endorse or promote products derived from
 *       this software without specific prior written permission.
 *
 * THIS SOFTWARE IS PROVIDED BY COPYRIGHT HOLDERS AND CONTRIBUTORS ''AS IS'' AND ANY EXPRESS
 * OR IMPLIED WARRANTIES, INCLUDING, BUT NOT LIMITED TO, THE IMPLIED WARRANTIES OF MERCHANTABILITY
 * AND FITNESS FOR A PARTICULAR PURPOSE ARE DISCLAIMED. IN NO EVENT SHALL COPYRIGHT HOLDERS OR
 * CONTRIBUTORS BE LIABLE FOR ANY DIRECT, INDIRECT, INCIDENTAL, SPECIAL, EXEMPLARY, OR
 * CONSEQUENTIAL DAMAGES (INCLUDING, BUT NOT LIMITED TO, PROCUREMENT OF SUBSTITUTE GOODS OR
 * SERVICES; LOSS OF USE, DATA, OR PROFITS; OR BUSINESS INTERRUPTION) HOWEVER CAUSED AND ON
 * ANY THEORY OF LIABILITY, WHETHER IN CONTRACT, STRICT LIABILITY, OR TORT (INCLUDING
 * NEGLIGENCE OR OTHERWISE) ARISING IN ANY WAY OUT OF THE USE OF THIS SOFTWARE, EVEN IF
 * ADVISED OF THE POSSIBILITY OF SUCH DAMAGE.
 *
 * The views and conclusions contained in the software and documentation are those of the
 * authors and should not be interpreted as representing official policies, either expressed
 * or implied, of Andrea Leofreddi.
 */

"use strict";

/// CONFIGURATION
/// ====>

var enablePan = 1; // 1 or 0: enable or disable panning (default enabled)
var enableZoom = 1; // 1 or 0: enable or disable zooming (default enabled)
var enableDrag = 0; // 1 or 0: enable or disable dragging (default disabled)
var zoomScale = 0.2; // Zoom sensitivity

/// <====
/// END OF CONFIGURATION

var root = document.documentElement;

var state = 'none', svgRoot = null, stateTarget, stateOrigin, stateTf;

setupHandlers(root);

/**
 * Register handlers
 */
function setupHandlers(root){
	setAttributes(root, {
		"onmouseup" : "handleMouseUp(evt)",
		"onmousedown" : "handleMouseDown(evt)",
		"onmousemove" : "handleMouseMove(evt)",
		//"onmouseout" : "handleMouseUp(evt)", // Decomment this to stop the pan functionality when dragging out of the SVG element
	});

	if(navigator.userAgent.toLowerCase().indexOf('webkit') >= 0)
		window.addEventListener('mousewheel', handleMouseWheel, false); // Chrome/Safari
	else
		window.addEventListener('DOMMouseScroll', handleMouseWheel, false); // Others
}

/**
 * Retrieves the root element for SVG manipulation. The element is then cached into the svgRoot global variable.
 */
function getRoot(root) {
	if(svgRoot == null) {
		var r = root.getElementById("viewport") ? root.getElementById("viewport") : root.documentElement, t = r;

		while(t != root) {
			if(t.getAttribute("viewBox")) {
				setCTM(r, t.getCTM());

				t.removeAttribute("viewBox");
			}

			t = t.parentNode;
		}

		svgRoot = r;
	}

	return svgRoot;
}

/**
 * Instance an SVGPoint object with given event coordinates.
 */
function getEventPoint(evt) {
	var p = root.createSVGPoint();

	p.x = evt.clientX;
	p.y = evt.clientY;

	return p;
}

/**
 * Sets the current transform matrix of an element.
 */
function setCTM(element, matrix) {
	var s = "matrix(" + matrix.a + "," + matrix.b + "," + matrix.c + "," + matrix.d + "," + matrix.e + "," + matrix.f + ")";

	element.setAttribute("transform", s);
}

/**
 * Dumps a matrix to a string (useful for debug).
 */
function dumpMatrix(matrix) {
	var s = "[ " + matrix.a + ", " + matrix.c + ", " + matrix.e + "\n  " + matrix.b + ", " + matrix.d + ", " + matrix.f + "\n  0, 0, 1 ]";

	return s;
}

/**
 * Sets attributes of an element.
 */
function setAttributes(element, attributes){
	for (var i in attributes)
		element.setAttributeNS(null, i, attributes[i]);
}

/**
 * Handle mouse wheel event.
 */
function handleMouseWheel(evt) {
	if(!enableZoom)
		return;

	if(evt.preventDefault)
		evt.preventDefault();

	evt.returnValue = false;

	var svgDoc = evt.target.ownerDocument;

	var delta;

	if(evt.wheelDelta)
		delta = evt.wheelDelta / 360; // Chrome/Safari
	else
		delta = evt.detail / -9; // Mozilla

	var z = Math.pow(1 + zoomScale, delta);

	var g = getRoot(svgDoc);
	
	var p = getEventPoint(evt);

	p = p.matrixTransform(g.getCTM().inverse());

	// Compute new scale matrix in current mouse position
	var k = root.createSVGMatrix().translate(p.x, p.y).scale(z).translate(-p.x, -p.y);

        setCTM(g, g.getCTM().multiply(k));

	if(typeof(stateTf) == "undefined")
		stateTf = g.getCTM().inverse();

	stateTf = stateTf.multiply(k.inverse());
}

/**
 * Handle mouse move event.
 */
function handleMouseMove(evt) {
	if(evt.preventDefault)
		evt.preventDefault();

	evt.returnValue = false;

	var svgDoc = evt.target.ownerDocument;

	var g = getRoot(svgDoc);

	if(state == 'pan' && enablePan) {
		// Pan mode
		var p = getEventPoint(evt).matrixTransform(stateTf);

		setCTM(g, stateTf.inverse().translate(p.x - stateOrigin.x, p.y - stateOrigin.y));
	} else if(state == 'drag' && enableDrag) {
		// Drag mode
		var p = getEventPoint(evt).matrixTransform(g.getCTM().inverse());

		setCTM(stateTarget, root.createSVGMatrix().translate(p.x - stateOrigin.x, p.y - stateOrigin.y).multiply(g.getCTM().inverse()).multiply(stateTarget.getCTM()));

		stateOrigin = p;
	}
}

/**
 * Handle click event.
 */
function handleMouseDown(evt) {
	if(evt.preventDefault)
		evt.preventDefault();

	evt.returnValue = false;

	var svgDoc = evt.target.ownerDocument;

	var g = getRoot(svgDoc);

	if(
		evt.target.tagName == "svg"
		|| !enableDrag // Pan anyway when drag is disabled and the user clicked on an element
	) {
		// Pan mode
		state = 'pan';

		stateTf = g.getCTM().inverse();

		stateOrigin = getEventPoint(evt).matrixTransform(stateTf);
	} else {
		// Drag mode
		state = 'drag';

		stateTarget = evt.target;

		stateTf = g.getCTM().inverse();

		stateOrigin = getEventPoint(evt).matrixTransform(stateTf);
	}
}

/**
 * Handle mouse button release event.
 */
function handleMouseUp(evt) {
	if(evt.preventDefault)
		evt.preventDefault();

	evt.returnValue = false;

	var svgDoc = evt.target.ownerDocument;

	if(state == 'pan' || state == 'drag') {
		// Quit pan mode
		state = '';
	}
}
]]></script><g id="viewport" transform="scale(0.5,0.5) translate(0,0)"><g id="graph0" class="graph" transform="scale(1 1) rotate(0) translate(4 1605)">
<title>pprof_1.exe</title>
<polygon fill="white" stroke="transparent" points="-4,4 -4,-1605 1032,-1605 1032,4 -4,4"/>
<g id="clust1" class="cluster">
<title>cluster_L</title>
<polygon fill="none" stroke="black" points="8,-1479 8,-1593 476,-1593 476,-1479 8,-1479"/>
</g>
<!-- File: pprof_1.exe -->
<g id="node1" class="node">
<title>File: pprof_1.exe</title>
<g id="a_node1"><a xlink:title="pprof_1.exe">
<polygon fill="#f8f8f8" stroke="black" points="468,-1585 16,-1585 16,-1487 468,-1487 468,-1585"/>
<text text-anchor="start" x="24" y="-1568.2" font-family="Times New Roman,serif" font-size="16.00">File: pprof_1.exe</text>
<text text-anchor="start" x="24" y="-1550.2" font-family="Times New Roman,serif" font-size="16.00">Type: alloc_objects</text>
<text text-anchor="start" x="24" y="-1532.2" font-family="Times New Roman,serif" font-size="16.00">Time: May 24, 2020 at 4:39pm (MSK)</text>
<text text-anchor="start" x="24" y="-1514.2" font-family="Times New Roman,serif" font-size="16.00">Showing nodes accounting for 17822926, 98.25% of 18141215 total</text>
<text text-anchor="start" x="24" y="-1496.2" font-family="Times New Roman,serif" font-size="16.00">Dropped 64 nodes (cum &lt;= 90706)</text>
</a>
</g>
</g>
<!-- N1 -->
<g id="node1" class="node">
<title>N1</title>
<g id="a_node1"><a xlink:title="net/http.(*conn).serve (18127014)">
<polygon fill="#edd5d5" stroke="#b20000" points="590,-1558 486,-1558 486,-1514 590,-1514 590,-1558"/>
<text text-anchor="middle" x="538" y="-1547.6" font-family="Times New Roman,serif" font-size="8.00">http</text>
<text text-anchor="middle" x="538" y="-1538.6" font-family="Times New Roman,serif" font-size="8.00">(*conn)</text>
<text text-anchor="middle" x="538" y="-1529.6" font-family="Times New Roman,serif" font-size="8.00">serve</text>
<text text-anchor="middle" x="538" y="-1520.6" font-family="Times New Roman,serif" font-size="8.00">0 of 18127014 (99.92%)</text>
</a>
</g>
</g>
<!-- N11 -->
<g id="node11" class="node">
<title>N11</title>
<g id="a_node11"><a xlink:title="net/http.serverHandler.ServeHTTP (18024611)">
<polygon fill="#edd5d5" stroke="#b20000" points="590,-1436 486,-1436 486,-1392 590,-1392 590,-1436"/>
<text text-anchor="middle" x="538" y="-1425.6" font-family="Times New Roman,serif" font-size="8.00">http</text>
<text text-anchor="middle" x="538" y="-1416.6" font-family="Times New Roman,serif" font-size="8.00">serverHandler</text>
<text text-anchor="middle" x="538" y="-1407.6" font-family="Times New Roman,serif" font-size="8.00">ServeHTTP</text>
<text text-anchor="middle" x="538" y="-1398.6" font-family="Times New Roman,serif" font-size="8.00">0 of 18024611 (99.36%)</text>
</a>
</g>
</g>
<!-- N1&#45;&gt;N11 -->
<g id="edge11" class="edge">
<title>N1&#45;&gt;N11</title>
<g id="a_edge11"><a xlink:title="net/http.(*conn).serve &#45;&gt; net/http.serverHandler.ServeHTTP (18024611)">
<path fill="none" stroke="#b20000" stroke-width="5" d="M538,-1513.82C538,-1495.17 538,-1467.75 538,-1446.53"/>
<polygon fill="#b20000" stroke="#b20000" stroke-width="5" points="542.38,-1446.37 538,-1436.37 533.63,-1446.37 542.38,-1446.37"/>
</a>
</g>
<g id="a_edge11&#45;label"><a xlink:title="net/http.(*conn).serve &#45;&gt; net/http.serverHandler.ServeHTTP (18024611)">
<text text-anchor="middle" x="567" y="-1457.8" font-family="Times New Roman,serif" font-size="14.00"> 18024611</text>
</a>
</g>
</g>
<!-- N2 -->
<g id="node2" class="node">
<title>N2</title>
<g id="a_node2"><a xlink:title="main.handle (18024611)">
<polygon fill="#edd5d5" stroke="#b20000" points="629,-1151 447,-1151 447,-1059 629,-1059 629,-1151"/>
<text text-anchor="middle" x="538" y="-1131.8" font-family="Times New Roman,serif" font-size="19.00">main</text>
<text text-anchor="middle" x="538" y="-1110.8" font-family="Times New Roman,serif" font-size="19.00">handle</text>
<text text-anchor="middle" x="538" y="-1089.8" font-family="Times New Roman,serif" font-size="19.00">2837627 (15.64%)</text>
<text text-anchor="middle" x="538" y="-1068.8" font-family="Times New Roman,serif" font-size="19.00">of 18024611 (99.36%)</text>
</a>
</g>
</g>
<!-- NN2_0 -->
<g id="NN2_0" class="node">
<title>NN2_0</title>
<g id="a_NN2_0"><a xlink:title="1396023">
<polygon fill="#f8f8f8" stroke="black" points="409,-1008 359,-1008 355,-1004 355,-972 405,-972 409,-976 409,-1008"/>
<polyline fill="none" stroke="black" points="405,-1004 355,-1004 "/>
<polyline fill="none" stroke="black" points="405,-1004 405,-972 "/>
<polyline fill="none" stroke="black" points="405,-1004 409,-1008 "/>
<text text-anchor="middle" x="382" y="-988.1" font-family="Times New Roman,serif" font-size="8.00">16B..128B</text>
</a>
</g>
</g>
<!-- N2&#45;&gt;NN2_0 -->
<g id="edge1" class="edge">
<title>N2&#45;&gt;NN2_0</title>
<g id="a_edge1"><a xlink:title="1396023">
<path fill="none" stroke="black" d="M448.75,-1058.95C440.09,-1053.33 431.68,-1047.32 424,-1041 415.24,-1033.79 406.92,-1024.59 400.02,-1016.04"/>
<polygon fill="black" stroke="black" points="402.78,-1013.89 393.88,-1008.14 397.25,-1018.18 402.78,-1013.89"/>
</a>
</g>
<g id="a_edge1&#45;label"><a xlink:title="1396023">
<text text-anchor="middle" x="450" y="-1029.8" font-family="Times New Roman,serif" font-size="14.00"> 1396023</text>
</a>
</g>
</g>
<!-- NN2_1 -->
<g id="NN2_1" class="node">
<title>NN2_1</title>
<g id="a_NN2_1"><a xlink:title="494823">
<polygon fill="#f8f8f8" stroke="black" points="490.5,-1008 431.5,-1008 427.5,-1004 427.5,-972 486.5,-972 490.5,-976 490.5,-1008"/>
<polyline fill="none" stroke="black" points="486.5,-1004 427.5,-1004 "/>
<polyline fill="none" stroke="black" points="486.5,-1004 486.5,-972 "/>
<polyline fill="none" stroke="black" points="486.5,-1004 490.5,-1008 "/>
<text text-anchor="middle" x="459" y="-988.1" font-family="Times New Roman,serif" font-size="8.00">80kB..112kB</text>
</a>
</g>
</g>
<!-- N2&#45;&gt;NN2_1 -->
<g id="edge2" class="edge">
<title>N2&#45;&gt;NN2_1</title>
<g id="a_edge2"><a xlink:title="494823">
<path fill="none" stroke="black" d="M501.74,-1058.72C497.34,-1052.84 492.99,-1046.83 489,-1041 483.82,-1033.44 478.55,-1024.97 473.9,-1017.18"/>
<polygon fill="black" stroke="black" points="476.85,-1015.3 468.77,-1008.45 470.82,-1018.84 476.85,-1015.3"/>
</a>
</g>
<g id="a_edge2&#45;label"><a xlink:title="494823">
<text text-anchor="middle" x="511.5" y="-1029.8" font-family="Times New Roman,serif" font-size="14.00"> 494823</text>
</a>
</g>
</g>
<!-- NN2_2 -->
<g id="NN2_2" class="node">
<title>NN2_2</title>
<g id="a_NN2_2"><a xlink:title="298058">
<polygon fill="#f8f8f8" stroke="black" points="567.5,-1008 512.5,-1008 508.5,-1004 508.5,-972 563.5,-972 567.5,-976 567.5,-1008"/>
<polyline fill="none" stroke="black" points="563.5,-1004 508.5,-1004 "/>
<polyline fill="none" stroke="black" points="563.5,-1004 563.5,-972 "/>
<polyline fill="none" stroke="black" points="563.5,-1004 567.5,-1008 "/>
<text text-anchor="middle" x="538" y="-988.1" font-family="Times New Roman,serif" font-size="8.00">56kB..72kB</text>
</a>
</g>
</g>
<!-- N2&#45;&gt;NN2_2 -->
<g id="edge3" class="edge">
<title>N2&#45;&gt;NN2_2</title>
<g id="a_edge3"><a xlink:title="298058">
<path fill="none" stroke="black" d="M538,-1058.69C538,-1045.06 538,-1030.52 538,-1018.42"/>
<polygon fill="black" stroke="black" points="541.5,-1018.1 538,-1008.1 534.5,-1018.1 541.5,-1018.1"/>
</a>
</g>
<g id="a_edge3&#45;label"><a xlink:title="298058">
<text text-anchor="middle" x="560.5" y="-1029.8" font-family="Times New Roman,serif" font-size="14.00"> 298058</text>
</a>
</g>
</g>
<!-- NN2_3 -->
<g id="NN2_3" class="node">
<title>NN2_3</title>
<g id="a_NN2_3"><a xlink:title="200244">
<polygon fill="#f8f8f8" stroke="black" points="644.5,-1008 589.5,-1008 585.5,-1004 585.5,-972 640.5,-972 644.5,-976 644.5,-1008"/>
<polyline fill="none" stroke="black" points="640.5,-1004 585.5,-1004 "/>
<polyline fill="none" stroke="black" points="640.5,-1004 640.5,-972 "/>
<polyline fill="none" stroke="black" points="640.5,-1004 644.5,-1008 "/>
<text text-anchor="middle" x="615" y="-988.1" font-family="Times New Roman,serif" font-size="8.00">40kB..48kB</text>
</a>
</g>
</g>
<!-- N2&#45;&gt;NN2_3 -->
<g id="edge4" class="edge">
<title>N2&#45;&gt;NN2_3</title>
<g id="a_edge4"><a xlink:title="200244">
<path fill="none" stroke="black" d="M574.43,-1058.83C578.8,-1052.93 583.09,-1046.89 587,-1041 592.06,-1033.37 597.1,-1024.77 601.48,-1016.88"/>
<polygon fill="black" stroke="black" points="604.58,-1018.5 606.28,-1008.04 598.43,-1015.16 604.58,-1018.5"/>
</a>
</g>
<g id="a_edge4&#45;label"><a xlink:title="200244">
<text text-anchor="middle" x="619.5" y="-1029.8" font-family="Times New Roman,serif" font-size="14.00"> 200244</text>
</a>
</g>
</g>
<!-- N6 -->
<g id="node6" class="node">
<title>N6</title>
<g id="a_node6"><a xlink:title="fmt.Sprintf (15168550)">
<polygon fill="#edd6d5" stroke="#b20900" points="763,-935 599,-935 599,-855 763,-855 763,-935"/>
<text text-anchor="middle" x="681" y="-918.2" font-family="Times New Roman,serif" font-size="16.00">fmt</text>
<text text-anchor="middle" x="681" y="-900.2" font-family="Times New Roman,serif" font-size="16.00">Sprintf</text>
<text text-anchor="middle" x="681" y="-882.2" font-family="Times New Roman,serif" font-size="16.00">1458354 (8.04%)</text>
<text text-anchor="middle" x="681" y="-864.2" font-family="Times New Roman,serif" font-size="16.00">of 15168550 (83.61%)</text>
</a>
</g>
</g>
<!-- N2&#45;&gt;N6 -->
<g id="edge14" class="edge">
<title>N2&#45;&gt;N6</title>
<g id="a_edge14"><a xlink:title="main.handle &#45;&gt; fmt.Sprintf (15168550)">
<path fill="none" stroke="#b20900" stroke-width="5" d="M629.11,-1058.93C635.39,-1053.5 641.14,-1047.53 646,-1041 666.47,-1013.5 675.13,-975.66 678.72,-945.53"/>
<polygon fill="#b20900" stroke="#b20900" stroke-width="5" points="683.11,-945.63 679.79,-935.23 674.4,-944.72 683.11,-945.63"/>
</a>
</g>
<g id="a_edge14&#45;label"><a xlink:title="main.handle &#45;&gt; fmt.Sprintf (15168550)">
<text text-anchor="middle" x="704" y="-986.3" font-family="Times New Roman,serif" font-size="14.00"> 15168550</text>
</a>
</g>
</g>
<!-- N3 -->
<g id="node3" class="node">
<title>N3</title>
<g id="a_node3"><a xlink:title="reflect.(*structType).Field (6914153)">
<polygon fill="#eddbd5" stroke="#b22c00" points="846.5,-336 649.5,-336 649.5,-224 846.5,-224 846.5,-336"/>
<text text-anchor="middle" x="748" y="-312.8" font-family="Times New Roman,serif" font-size="24.00">reflect</text>
<text text-anchor="middle" x="748" y="-286.8" font-family="Times New Roman,serif" font-size="24.00">(*structType)</text>
<text text-anchor="middle" x="748" y="-260.8" font-family="Times New Roman,serif" font-size="24.00">Field</text>
<text text-anchor="middle" x="748" y="-234.8" font-family="Times New Roman,serif" font-size="24.00">6914153 (38.11%)</text>
</a>
</g>
</g>
<!-- NN3_0 -->
<g id="NN3_0" class="node">
<title>NN3_0</title>
<g id="a_NN3_0"><a xlink:title="6914153">
<polygon fill="#f8f8f8" stroke="black" points="775,-148 725,-148 721,-144 721,-112 771,-112 775,-116 775,-148"/>
<polyline fill="none" stroke="black" points="771,-144 721,-144 "/>
<polyline fill="none" stroke="black" points="771,-144 771,-112 "/>
<polyline fill="none" stroke="black" points="771,-144 775,-148 "/>
<text text-anchor="middle" x="748" y="-128.1" font-family="Times New Roman,serif" font-size="8.00">16B</text>
</a>
</g>
</g>
<!-- N3&#45;&gt;NN3_0 -->
<g id="edge5" class="edge">
<title>N3&#45;&gt;NN3_0</title>
<g id="a_edge5"><a xlink:title="6914153">
<path fill="none" stroke="black" d="M748,-223.89C748,-201.6 748,-176.86 748,-158.51"/>
<polygon fill="black" stroke="black" points="751.5,-158.26 748,-148.26 744.5,-158.26 751.5,-158.26"/>
</a>
</g>
<g id="a_edge5&#45;label"><a xlink:title="6914153">
<text text-anchor="middle" x="774" y="-194.8" font-family="Times New Roman,serif" font-size="14.00"> 6914153</text>
</a>
</g>
</g>
<!-- N4 -->
<g id="node4" class="node">
<title>N4</title>
<g id="a_node4"><a xlink:title="fmt.(*pp).printValue (13649831)">
<polygon fill="#edd7d5" stroke="#b20e00" points="800,-541 696,-541 696,-497 800,-497 800,-541"/>
<text text-anchor="middle" x="748" y="-530.6" font-family="Times New Roman,serif" font-size="8.00">fmt</text>
<text text-anchor="middle" x="748" y="-521.6" font-family="Times New Roman,serif" font-size="8.00">(*pp)</text>
<text text-anchor="middle" x="748" y="-512.6" font-family="Times New Roman,serif" font-size="8.00">printValue</text>
<text text-anchor="middle" x="748" y="-503.6" font-family="Times New Roman,serif" font-size="8.00">0 of 13649831 (75.24%)</text>
</a>
</g>
</g>
<!-- N12 -->
<g id="node12" class="node">
<title>N12</title>
<g id="a_node12"><a xlink:title="reflect.(*rtype).Field (6914153)">
<polygon fill="#eddbd5" stroke="#b22c00" points="798,-431 698,-431 698,-387 798,-387 798,-431"/>
<text text-anchor="middle" x="748" y="-420.6" font-family="Times New Roman,serif" font-size="8.00">reflect</text>
<text text-anchor="middle" x="748" y="-411.6" font-family="Times New Roman,serif" font-size="8.00">(*rtype)</text>
<text text-anchor="middle" x="748" y="-402.6" font-family="Times New Roman,serif" font-size="8.00">Field</text>
<text text-anchor="middle" x="748" y="-393.6" font-family="Times New Roman,serif" font-size="8.00">0 of 6914153 (38.11%)</text>
</a>
</g>
</g>
<!-- N4&#45;&gt;N12 -->
<g id="edge18" class="edge">
<title>N4&#45;&gt;N12</title>
<g id="a_edge18"><a xlink:title="fmt.(*pp).printValue &#45;&gt; reflect.(*rtype).Field (6914153)">
<path fill="none" stroke="#b22c00" stroke-width="2" d="M748,-496.92C748,-481.09 748,-459.15 748,-441.27"/>
<polygon fill="#b22c00" stroke="#b22c00" stroke-width="2" points="751.5,-441.03 748,-431.03 744.5,-441.03 751.5,-441.03"/>
</a>
</g>
<g id="a_edge18&#45;label"><a xlink:title="fmt.(*pp).printValue &#45;&gt; reflect.(*rtype).Field (6914153)">
<text text-anchor="middle" x="774" y="-460.3" font-family="Times New Roman,serif" font-size="14.00"> 6914153</text>
</a>
</g>
</g>
<!-- N13 -->
<g id="node13" class="node">
<title>N13</title>
<g id="a_node13"><a xlink:title="reflect.Value.Interface (6612792)">
<polygon fill="#eddbd5" stroke="#b22e00" points="940,-431 840,-431 840,-387 940,-387 940,-431"/>
<text text-anchor="middle" x="890" y="-420.6" font-family="Times New Roman,serif" font-size="8.00">reflect</text>
<text text-anchor="middle" x="890" y="-411.6" font-family="Times New Roman,serif" font-size="8.00">Value</text>
<text text-anchor="middle" x="890" y="-402.6" font-family="Times New Roman,serif" font-size="8.00">Interface</text>
<text text-anchor="middle" x="890" y="-393.6" font-family="Times New Roman,serif" font-size="8.00">0 of 6612792 (36.45%)</text>
</a>
</g>
</g>
<!-- N4&#45;&gt;N13 -->
<g id="edge20" class="edge">
<title>N4&#45;&gt;N13</title>
<g id="a_edge20"><a xlink:title="fmt.(*pp).printValue &#45;&gt; reflect.Value.Interface (6612792)">
<path fill="none" stroke="#b22e00" stroke-width="2" d="M779.08,-496.91C787.26,-491.21 796.03,-484.96 804,-479 821.62,-465.82 840.76,-450.56 856.5,-437.75"/>
<polygon fill="#b22e00" stroke="#b22e00" stroke-width="2" points="858.86,-440.34 864.39,-431.3 854.43,-434.92 858.86,-440.34"/>
</a>
</g>
<g id="a_edge20&#45;label"><a xlink:title="fmt.(*pp).printValue &#45;&gt; reflect.Value.Interface (6612792)">
<text text-anchor="middle" x="869" y="-467.8" font-family="Times New Roman,serif" font-size="14.00"> 6612792</text>
<text text-anchor="middle" x="869" y="-452.8" font-family="Times New Roman,serif" font-size="14.00"> (inline)</text>
</a>
</g>
</g>
<!-- N5 -->
<g id="node5" class="node">
<title>N5</title>
<g id="a_node5"><a xlink:title="reflect.packEface (6612792)">
<polygon fill="#eddbd5" stroke="#b22e00" points="1013.5,-173 816.5,-173 816.5,-87 1013.5,-87 1013.5,-173"/>
<text text-anchor="middle" x="915" y="-149.8" font-family="Times New Roman,serif" font-size="24.00">reflect</text>
<text text-anchor="middle" x="915" y="-123.8" font-family="Times New Roman,serif" font-size="24.00">packEface</text>
<text text-anchor="middle" x="915" y="-97.8" font-family="Times New Roman,serif" font-size="24.00">6612792 (36.45%)</text>
</a>
</g>
</g>
<!-- NN5_0 -->
<g id="NN5_0" class="node">
<title>NN5_0</title>
<g id="a_NN5_0"><a xlink:title="3833914">
<polygon fill="#f8f8f8" stroke="black" points="867,-36 817,-36 813,-32 813,0 863,0 867,-4 867,-36"/>
<polyline fill="none" stroke="black" points="863,-32 813,-32 "/>
<polyline fill="none" stroke="black" points="863,-32 863,0 "/>
<polyline fill="none" stroke="black" points="863,-32 867,-36 "/>
<text text-anchor="middle" x="840" y="-16.1" font-family="Times New Roman,serif" font-size="8.00">16B</text>
</a>
</g>
</g>
<!-- N5&#45;&gt;NN5_0 -->
<g id="edge6" class="edge">
<title>N5&#45;&gt;NN5_0</title>
<g id="a_edge6"><a xlink:title="3833914">
<path fill="none" stroke="black" d="M871.89,-86.72C867.2,-81.02 862.77,-75.05 859,-69 854.63,-61.98 851,-53.8 848.13,-46.12"/>
<polygon fill="black" stroke="black" points="851.36,-44.74 844.79,-36.43 844.74,-47.03 851.36,-44.74"/>
</a>
</g>
<g id="a_edge6&#45;label"><a xlink:title="3833914">
<text text-anchor="middle" x="885" y="-57.8" font-family="Times New Roman,serif" font-size="14.00"> 3833914</text>
</a>
</g>
</g>
<!-- NN5_1 -->
<g id="NN5_1" class="node">
<title>NN5_1</title>
<g id="a_NN5_1"><a xlink:title="1468118">
<polygon fill="#f8f8f8" stroke="black" points="942,-36 892,-36 888,-32 888,0 938,0 942,-4 942,-36"/>
<polyline fill="none" stroke="black" points="938,-32 888,-32 "/>
<polyline fill="none" stroke="black" points="938,-32 938,0 "/>
<polyline fill="none" stroke="black" points="938,-32 942,-36 "/>
<text text-anchor="middle" x="915" y="-16.1" font-family="Times New Roman,serif" font-size="8.00">80B</text>
</a>
</g>
</g>
<!-- N5&#45;&gt;NN5_1 -->
<g id="edge7" class="edge">
<title>N5&#45;&gt;NN5_1</title>
<g id="a_edge7"><a xlink:title="1468118">
<path fill="none" stroke="black" d="M915,-86.79C915,-73.2 915,-58.5 915,-46.28"/>
<polygon fill="black" stroke="black" points="918.5,-46.27 915,-36.27 911.5,-46.27 918.5,-46.27"/>
</a>
</g>
<g id="a_edge7&#45;label"><a xlink:title="1468118">
<text text-anchor="middle" x="941" y="-57.8" font-family="Times New Roman,serif" font-size="14.00"> 1468118</text>
</a>
</g>
</g>
<!-- NN5_2 -->
<g id="NN5_2" class="node">
<title>NN5_2</title>
<g id="a_NN5_2"><a xlink:title="1310760">
<polygon fill="#f8f8f8" stroke="black" points="1017,-36 967,-36 963,-32 963,0 1013,0 1017,-4 1017,-36"/>
<polyline fill="none" stroke="black" points="1013,-32 963,-32 "/>
<polyline fill="none" stroke="black" points="1013,-32 1013,0 "/>
<polyline fill="none" stroke="black" points="1013,-32 1017,-36 "/>
<text text-anchor="middle" x="990" y="-16.1" font-family="Times New Roman,serif" font-size="8.00">32B</text>
</a>
</g>
</g>
<!-- N5&#45;&gt;NN5_2 -->
<g id="edge8" class="edge">
<title>N5&#45;&gt;NN5_2</title>
<g id="a_edge8"><a xlink:title="1310760">
<path fill="none" stroke="black" d="M955.18,-86.68C959.78,-80.94 964.18,-74.97 968,-69 972.6,-61.81 976.68,-53.5 980.05,-45.74"/>
<polygon fill="black" stroke="black" points="983.35,-46.91 983.91,-36.33 976.87,-44.25 983.35,-46.91"/>
</a>
</g>
<g id="a_edge8&#45;label"><a xlink:title="1310760">
<text text-anchor="middle" x="1002" y="-57.8" font-family="Times New Roman,serif" font-size="14.00"> 1310760</text>
</a>
</g>
</g>
<!-- NN6_0 -->
<g id="NN6_0" class="node">
<title>NN6_0</title>
<g id="a_NN6_0"><a xlink:title="1458354">
<polygon fill="#f8f8f8" stroke="black" points="708,-804 658,-804 654,-800 654,-768 704,-768 708,-772 708,-804"/>
<polyline fill="none" stroke="black" points="704,-800 654,-800 "/>
<polyline fill="none" stroke="black" points="704,-800 704,-768 "/>
<polyline fill="none" stroke="black" points="704,-800 708,-804 "/>
<text text-anchor="middle" x="681" y="-784.1" font-family="Times New Roman,serif" font-size="8.00">128B</text>
</a>
</g>
</g>
<!-- N6&#45;&gt;NN6_0 -->
<g id="edge9" class="edge">
<title>N6&#45;&gt;NN6_0</title>
<g id="a_edge9"><a xlink:title="1458354">
<path fill="none" stroke="black" d="M681,-854.76C681,-841.29 681,-826.52 681,-814.22"/>
<polygon fill="black" stroke="black" points="684.5,-814.14 681,-804.14 677.5,-814.14 684.5,-814.14"/>
</a>
</g>
<g id="a_edge9&#45;label"><a xlink:title="1458354">
<text text-anchor="middle" x="707" y="-825.8" font-family="Times New Roman,serif" font-size="14.00"> 1458354</text>
</a>
</g>
</g>
<!-- N7 -->
<g id="node7" class="node">
<title>N7</title>
<g id="a_node7"><a xlink:title="fmt.(*pp).doPrintf (13649831)">
<polygon fill="#edd7d5" stroke="#b20e00" points="800,-731 696,-731 696,-687 800,-687 800,-731"/>
<text text-anchor="middle" x="748" y="-720.6" font-family="Times New Roman,serif" font-size="8.00">fmt</text>
<text text-anchor="middle" x="748" y="-711.6" font-family="Times New Roman,serif" font-size="8.00">(*pp)</text>
<text text-anchor="middle" x="748" y="-702.6" font-family="Times New Roman,serif" font-size="8.00">doPrintf</text>
<text text-anchor="middle" x="748" y="-693.6" font-family="Times New Roman,serif" font-size="8.00">0 of 13649831 (75.24%)</text>
</a>
</g>
</g>
<!-- N6&#45;&gt;N7 -->
<g id="edge17" class="edge">
<title>N6&#45;&gt;N7</title>
<g id="a_edge17"><a xlink:title="fmt.Sprintf &#45;&gt; fmt.(*pp).doPrintf (13649831)">
<path fill="none" stroke="#b20e00" stroke-width="4" d="M723.01,-854.94C727.3,-849.3 731.13,-843.27 734,-837 747.88,-806.69 750.29,-768.2 749.91,-741.57"/>
<polygon fill="#b20e00" stroke="#b20e00" stroke-width="4" points="753.4,-741.2 749.62,-731.3 746.4,-741.39 753.4,-741.2"/>
</a>
</g>
<g id="a_edge17&#45;label"><a xlink:title="fmt.Sprintf &#45;&gt; fmt.(*pp).doPrintf (13649831)">
<text text-anchor="middle" x="779" y="-782.3" font-family="Times New Roman,serif" font-size="14.00"> 13649831</text>
</a>
</g>
</g>
<!-- N8 -->
<g id="node8" class="node">
<title>N8</title>
<g id="a_node8"><a xlink:title="fmt.(*pp).printArg (13649831)">
<polygon fill="#edd7d5" stroke="#b20e00" points="800,-636 696,-636 696,-592 800,-592 800,-636"/>
<text text-anchor="middle" x="748" y="-625.6" font-family="Times New Roman,serif" font-size="8.00">fmt</text>
<text text-anchor="middle" x="748" y="-616.6" font-family="Times New Roman,serif" font-size="8.00">(*pp)</text>
<text text-anchor="middle" x="748" y="-607.6" font-family="Times New Roman,serif" font-size="8.00">printArg</text>
<text text-anchor="middle" x="748" y="-598.6" font-family="Times New Roman,serif" font-size="8.00">0 of 13649831 (75.24%)</text>
</a>
</g>
</g>
<!-- N7&#45;&gt;N8 -->
<g id="edge15" class="edge">
<title>N7&#45;&gt;N8</title>
<g id="a_edge15"><a xlink:title="fmt.(*pp).doPrintf &#45;&gt; fmt.(*pp).printArg (13649831)">
<path fill="none" stroke="#b20e00" stroke-width="4" d="M748,-686.9C748,-674.89 748,-659.62 748,-646.24"/>
<polygon fill="#b20e00" stroke="#b20e00" stroke-width="4" points="751.5,-646.02 748,-636.02 744.5,-646.02 751.5,-646.02"/>
</a>
</g>
<g id="a_edge15&#45;label"><a xlink:title="fmt.(*pp).doPrintf &#45;&gt; fmt.(*pp).printArg (13649831)">
<text text-anchor="middle" x="777" y="-657.8" font-family="Times New Roman,serif" font-size="14.00"> 13649831</text>
</a>
</g>
</g>
<!-- N8&#45;&gt;N4 -->
<g id="edge16" class="edge">
<title>N8&#45;&gt;N4</title>
<g id="a_edge16"><a xlink:title="fmt.(*pp).printArg &#45;&gt; fmt.(*pp).printValue (13649831)">
<path fill="none" stroke="#b20e00" stroke-width="4" d="M748,-591.9C748,-579.89 748,-564.62 748,-551.24"/>
<polygon fill="#b20e00" stroke="#b20e00" stroke-width="4" points="751.5,-551.02 748,-541.02 744.5,-551.02 751.5,-551.02"/>
</a>
</g>
<g id="a_edge16&#45;label"><a xlink:title="fmt.(*pp).printArg &#45;&gt; fmt.(*pp).printValue (13649831)">
<text text-anchor="middle" x="777" y="-562.8" font-family="Times New Roman,serif" font-size="14.00"> 13649831</text>
</a>
</g>
</g>
<!-- N9 -->
<g id="node9" class="node">
<title>N9</title>
<g id="a_node9"><a xlink:title="net/http.(*ServeMux).ServeHTTP (18024611)">
<polygon fill="#edd5d5" stroke="#b20000" points="590,-1341 486,-1341 486,-1297 590,-1297 590,-1341"/>
<text text-anchor="middle" x="538" y="-1330.6" font-family="Times New Roman,serif" font-size="8.00">http</text>
<text text-anchor="middle" x="538" y="-1321.6" font-family="Times New Roman,serif" font-size="8.00">(*ServeMux)</text>
<text text-anchor="middle" x="538" y="-1312.6" font-family="Times New Roman,serif" font-size="8.00">ServeHTTP</text>
<text text-anchor="middle" x="538" y="-1303.6" font-family="Times New Roman,serif" font-size="8.00">0 of 18024611 (99.36%)</text>
</a>
</g>
</g>
<!-- N10 -->
<g id="node10" class="node">
<title>N10</title>
<g id="a_node10"><a xlink:title="net/http.HandlerFunc.ServeHTTP (18024611)">
<polygon fill="#edd5d5" stroke="#b20000" points="590,-1246 486,-1246 486,-1202 590,-1202 590,-1246"/>
<text text-anchor="middle" x="538" y="-1235.6" font-family="Times New Roman,serif" font-size="8.00">http</text>
<text text-anchor="middle" x="538" y="-1226.6" font-family="Times New Roman,serif" font-size="8.00">HandlerFunc</text>
<text text-anchor="middle" x="538" y="-1217.6" font-family="Times New Roman,serif" font-size="8.00">ServeHTTP</text>
<text text-anchor="middle" x="538" y="-1208.6" font-family="Times New Roman,serif" font-size="8.00">0 of 18024611 (99.36%)</text>
</a>
</g>
</g>
<!-- N9&#45;&gt;N10 -->
<g id="edge10" class="edge">
<title>N9&#45;&gt;N10</title>
<g id="a_edge10"><a xlink:title="net/http.(*ServeMux).ServeHTTP &#45;&gt; net/http.HandlerFunc.ServeHTTP (18024611)">
<path fill="none" stroke="#b20000" stroke-width="5" d="M538,-1296.9C538,-1284.89 538,-1269.62 538,-1256.24"/>
<polygon fill="#b20000" stroke="#b20000" stroke-width="5" points="542.38,-1256.02 538,-1246.02 533.63,-1256.02 542.38,-1256.02"/>
</a>
</g>
<g id="a_edge10&#45;label"><a xlink:title="net/http.(*ServeMux).ServeHTTP &#45;&gt; net/http.HandlerFunc.ServeHTTP (18024611)">
<text text-anchor="middle" x="567" y="-1267.8" font-family="Times New Roman,serif" font-size="14.00"> 18024611</text>
</a>
</g>
</g>
<!-- N10&#45;&gt;N2 -->
<g id="edge12" class="edge">
<title>N10&#45;&gt;N2</title>
<g id="a_edge12"><a xlink:title="net/http.HandlerFunc.ServeHTTP &#45;&gt; main.handle (18024611)">
<path fill="none" stroke="#b20000" stroke-width="5" d="M538,-1201.81C538,-1190.47 538,-1175.92 538,-1161.6"/>
<polygon fill="#b20000" stroke="#b20000" stroke-width="5" points="542.38,-1161.27 538,-1151.27 533.63,-1161.27 542.38,-1161.27"/>
</a>
</g>
<g id="a_edge12&#45;label"><a xlink:title="net/http.HandlerFunc.ServeHTTP &#45;&gt; main.handle (18024611)">
<text text-anchor="middle" x="567" y="-1172.8" font-family="Times New Roman,serif" font-size="14.00"> 18024611</text>
</a>
</g>
</g>
<!-- N11&#45;&gt;N9 -->
<g id="edge13" class="edge">
<title>N11&#45;&gt;N9</title>
<g id="a_edge13"><a xlink:title="net/http.serverHandler.ServeHTTP &#45;&gt; net/http.(*ServeMux).ServeHTTP (18024611)">
<path fill="none" stroke="#b20000" stroke-width="5" d="M538,-1391.9C538,-1379.89 538,-1364.62 538,-1351.24"/>
<polygon fill="#b20000" stroke="#b20000" stroke-width="5" points="542.38,-1351.02 538,-1341.02 533.63,-1351.02 542.38,-1351.02"/>
</a>
</g>
<g id="a_edge13&#45;label"><a xlink:title="net/http.serverHandler.ServeHTTP &#45;&gt; net/http.(*ServeMux).ServeHTTP (18024611)">
<text text-anchor="middle" x="567" y="-1362.8" font-family="Times New Roman,serif" font-size="14.00"> 18024611</text>
</a>
</g>
</g>
<!-- N12&#45;&gt;N3 -->
<g id="edge19" class="edge">
<title>N12&#45;&gt;N3</title>
<g id="a_edge19"><a xlink:title="reflect.(*rtype).Field &#45;&gt; reflect.(*structType).Field (6914153)">
<path fill="none" stroke="#b22c00" stroke-width="2" d="M748,-386.74C748,-375.44 748,-360.87 748,-346.18"/>
<polygon fill="#b22c00" stroke="#b22c00" stroke-width="2" points="751.5,-346.03 748,-336.03 744.5,-346.03 751.5,-346.03"/>
</a>
</g>
<g id="a_edge19&#45;label"><a xlink:title="reflect.(*rtype).Field &#45;&gt; reflect.(*structType).Field (6914153)">
<text text-anchor="middle" x="774" y="-357.8" font-family="Times New Roman,serif" font-size="14.00"> 6914153</text>
</a>
</g>
</g>
<!-- N14 -->
<g id="node14" class="node">
<title>N14</title>
<g id="a_node14"><a xlink:title="reflect.valueInterface (6612792)">
<polygon fill="#eddbd5" stroke="#b22e00" points="965,-298 865,-298 865,-262 965,-262 965,-298"/>
<text text-anchor="middle" x="915" y="-287.1" font-family="Times New Roman,serif" font-size="8.00">reflect</text>
<text text-anchor="middle" x="915" y="-278.1" font-family="Times New Roman,serif" font-size="8.00">valueInterface</text>
<text text-anchor="middle" x="915" y="-269.1" font-family="Times New Roman,serif" font-size="8.00">0 of 6612792 (36.45%)</text>
</a>
</g>
</g>
<!-- N13&#45;&gt;N14 -->
<g id="edge21" class="edge">
<title>N13&#45;&gt;N14</title>
<g id="a_edge21"><a xlink:title="reflect.Value.Interface &#45;&gt; reflect.valueInterface (6612792)">
<path fill="none" stroke="#b22e00" stroke-width="2" d="M894.18,-386.74C898.43,-365.19 905.01,-331.75 909.63,-308.26"/>
<polygon fill="#b22e00" stroke="#b22e00" stroke-width="2" points="913.11,-308.73 911.61,-298.24 906.24,-307.38 913.11,-308.73"/>
</a>
</g>
<g id="a_edge21&#45;label"><a xlink:title="reflect.Value.Interface &#45;&gt; reflect.valueInterface (6612792)">
<text text-anchor="middle" x="927" y="-357.8" font-family="Times New Roman,serif" font-size="14.00"> 6612792</text>
</a>
</g>
</g>
<!-- N14&#45;&gt;N5 -->
<g id="edge22" class="edge">
<title>N14&#45;&gt;N5</title>
<g id="a_edge22"><a xlink:title="reflect.valueInterface &#45;&gt; reflect.packEface (6612792)">
<path fill="none" stroke="#b22e00" stroke-width="2" d="M915,-261.73C915,-242.6 915,-210.82 915,-183.38"/>
<polygon fill="#b22e00" stroke="#b22e00" stroke-width="2" points="918.5,-183.11 915,-173.11 911.5,-183.11 918.5,-183.11"/>
</a>
</g>
<g id="a_edge22&#45;label"><a xlink:title="reflect.valueInterface &#45;&gt; reflect.packEface (6612792)">
<text text-anchor="middle" x="941" y="-194.8" font-family="Times New Roman,serif" font-size="14.00"> 6612792</text>
</a>
</g>
</g>
</g>
</g></svg>
